<svg id="SvgjsSvg1008" xmlns="http://www.w3.org/2000/svg" version="1.1" xmlns:xlink="http://www.w3.org/1999/xlink" xmlns:svgjs="http://svgjs.com/svgjs" width="360" height="428" viewBox="0 0 360 428"><title>Polygon 1 copy</title><desc>Created with Avocode.</desc><defs id="SvgjsDefs1009"><clipPath id="SvgjsClipPath1012"><path id="SvgjsPath1011" d="M1406.09 155.324L1334.09 174.99900000000002L1281 122.67900000000003L1299.9 50.683100000000024L1371.91 31.006700000000023L1425 83.32720000000003Z " fill="#ffffff"></path></clipPath><clipPath id="SvgjsClipPath1015"><path id="SvgjsPath1014" d="M1524.22 41.1262L1422.21 69.0003L1346.99 -5.120370000000008L1373.78 -107.114L1475.78 -134.988L1551 -60.86709999999999Z " fill="#ffffff"></path></clipPath><clipPath id="SvgjsClipPath1018"><path id="SvgjsPath1017" d="M1614.22 185.126L1512.21 213L1436.99 138.87900000000002L1463.78 36.88450000000002L1565.78 9.010390000000015L1641 83.13100000000001Z " fill="#ffffff"></path></clipPath><clipPath id="SvgjsClipPath1021"><path id="SvgjsPath1020" d="M1430.11 237.466L1369.61 253.99900000000002L1325 210.03500000000003L1340.88 149.53900000000002L1401.39 133.00600000000003L1446 176.97000000000003Z " fill="#ffffff"></path></clipPath><clipPath id="SvgjsClipPath1024"><path id="SvgjsPath1023" d="M1554.11 276.466L1493.61 293L1449 249.036L1464.88 188.539L1525.39 172.00599999999997L1570 215.96899999999997Z " fill="#ffffff"></path></clipPath></defs><path id="SvgjsPath1010" d="M1406.09 155.324L1334.09 174.99900000000002L1281 122.67900000000003L1299.9 50.683100000000024L1371.91 31.006700000000023L1425 83.32720000000003Z " fill-opacity="0" fill="#ffffff" stroke-dasharray="0" stroke-linejoin="miter" stroke-linecap="butt" stroke-opacity="1" stroke="#eead59" stroke-miterlimit="50" stroke-width="12" clip-path="url(&quot;#SvgjsClipPath1012&quot;)" transform="matrix(1,0,0,1,-1281,135)"></path><path id="SvgjsPath1013" d="M1524.22 41.1262L1422.21 69.0003L1346.99 -5.120370000000008L1373.78 -107.114L1475.78 -134.988L1551 -60.86709999999999Z " fill-opacity="0" fill="#ffffff" stroke-dasharray="0" stroke-linejoin="miter" stroke-linecap="butt" stroke-opacity="1" stroke="#eead59" stroke-miterlimit="50" stroke-width="12" clip-path="url(&quot;#SvgjsClipPath1015&quot;)" transform="matrix(1,0,0,1,-1281,135)"></path><path id="SvgjsPath1016" d="M1614.22 185.126L1512.21 213L1436.99 138.87900000000002L1463.78 36.88450000000002L1565.78 9.010390000000015L1641 83.13100000000001Z " fill-opacity="0" fill="#ffffff" stroke-dasharray="0" stroke-linejoin="miter" stroke-linecap="butt" stroke-opacity="1" stroke="#eead59" stroke-miterlimit="50" stroke-width="12" clip-path="url(&quot;#SvgjsClipPath1018&quot;)" transform="matrix(1,0,0,1,-1281,135)"></path><path id="SvgjsPath1019" d="M1430.11 237.466L1369.61 253.99900000000002L1325 210.03500000000003L1340.88 149.53900000000002L1401.39 133.00600000000003L1446 176.97000000000003Z " fill-opacity="0" fill="#ffffff" stroke-dasharray="0" stroke-linejoin="miter" stroke-linecap="butt" stroke-opacity="1" stroke="#eead59" stroke-miterlimit="50" stroke-width="12" clip-path="url(&quot;#SvgjsClipPath1021&quot;)" transform="matrix(1,0,0,1,-1281,135)"></path><path id="SvgjsPath1022" d="M1554.11 276.466L1493.61 293L1449 249.036L1464.88 188.539L1525.39 172.00599999999997L1570 215.96899999999997Z " fill-opacity="0" fill="#ffffff" stroke-dasharray="0" stroke-linejoin="miter" stroke-linecap="butt" stroke-opacity="1" stroke="#eead59" stroke-miterlimit="50" stroke-width="12" clip-path="url(&quot;#SvgjsClipPath1024&quot;)" transform="matrix(1,0,0,1,-1281,135)"></path></svg>