<svg id="SvgjsSvg1044" xmlns="http://www.w3.org/2000/svg" version="1.1" xmlns:xlink="http://www.w3.org/1999/xlink" xmlns:svgjs="http://svgjs.com/svgjs" width="377" height="524" viewBox="0 0 377 524"><title>Polygon 4 copy 3</title><desc>Created with Avocode.</desc><defs id="SvgjsDefs1045"><clipPath id="SvgjsClipPath1048"><path id="SvgjsPath1047" d="M1513.43 10399.4L1438.92 10414L1389 10357.1L1413.57 10285.6L1488.08 10271L1538 10327.9Z " fill="#ffffff"></path></clipPath><clipPath id="SvgjsClipPath1051"><path id="SvgjsPath1050" d="M1489.22 10571.2L1377.72 10593L1303 10507.8L1339.78 10400.8L1451.28 10379L1526 10464.2Z " fill="#ffffff"></path></clipPath><clipPath id="SvgjsClipPath1054"><path id="SvgjsPath1053" d="M1518.22 10629.2L1406.72 10651L1332 10565.8L1368.78 10458.8L1480.28 10437L1555 10522.2Z " fill="#ffffff"></path></clipPath><clipPath id="SvgjsClipPath1057"><path id="SvgjsPath1056" d="M1629.52 10765.7L1479.52 10795L1378.99 10680.3L1428.48 10536.3L1578.48 10507L1679.01 10621.7Z " fill="#ffffff"></path></clipPath></defs><path id="SvgjsPath1046" d="M1513.43 10399.4L1438.92 10414L1389 10357.1L1413.57 10285.6L1488.08 10271L1538 10327.9Z " fill-opacity="0" fill="#ffffff" stroke-dasharray="0" stroke-linejoin="miter" stroke-linecap="butt" stroke-opacity="1" stroke="#eead59" stroke-miterlimit="50" stroke-width="11.06" clip-path="url(&quot;#SvgjsClipPath1048&quot;)" transform="matrix(1,0,0,1,-1303,-10271)"></path><path id="SvgjsPath1049" d="M1489.22 10571.2L1377.72 10593L1303 10507.8L1339.78 10400.8L1451.28 10379L1526 10464.2Z " fill-opacity="0" fill="#ffffff" stroke-dasharray="0" stroke-linejoin="miter" stroke-linecap="butt" stroke-opacity="1" stroke="#eead59" stroke-miterlimit="50" stroke-width="11.06" clip-path="url(&quot;#SvgjsClipPath1051&quot;)" transform="matrix(1,0,0,1,-1303,-10271)"></path><path id="SvgjsPath1052" d="M1518.22 10629.2L1406.72 10651L1332 10565.8L1368.78 10458.8L1480.28 10437L1555 10522.2Z " fill-opacity="0" fill="#ffffff" stroke-dasharray="0" stroke-linejoin="miter" stroke-linecap="butt" stroke-opacity="1" stroke="#eead59" stroke-miterlimit="50" stroke-width="11.06" clip-path="url(&quot;#SvgjsClipPath1054&quot;)" transform="matrix(1,0,0,1,-1303,-10271)"></path><path id="SvgjsPath1055" d="M1629.52 10765.7L1479.52 10795L1378.99 10680.3L1428.48 10536.3L1578.48 10507L1679.01 10621.7Z " fill-opacity="0" fill="#ffffff" stroke-dasharray="0" stroke-linejoin="miter" stroke-linecap="butt" stroke-opacity="1" stroke="#eead59" stroke-miterlimit="50" stroke-width="11.06" clip-path="url(&quot;#SvgjsClipPath1057&quot;)" transform="matrix(1,0,0,1,-1303,-10271)"></path></svg>