<svg id="SvgjsSvg1025" xmlns="http://www.w3.org/2000/svg" version="1.1" xmlns:xlink="http://www.w3.org/1999/xlink" xmlns:svgjs="http://svgjs.com/svgjs" width="246" height="381" viewBox="0 0 246 381"><title>Polygon 3</title><desc>Created with Avocode.</desc><defs id="SvgjsDefs1026"><clipPath id="SvgjsClipPath1029"><path id="SvgjsPath1028" d="M108 3246.71L22.774600000000007 3278.33L-47.22529999999999 3220.34L-31.99989999999999 3130.7200000000003L53.22530000000001 3099.09L123.22500000000002 3157.09Z " fill="#ffffff"></path></clipPath><clipPath id="SvgjsClipPath1032"><path id="SvgjsPath1031" d="M157.213 3399.64L35.2033 3444.98L-65.0093 3361.83L-43.212599999999995 3233.34L78.7967 3188L179.00900000000001 3271.15Z " fill="#ffffff"></path></clipPath><clipPath id="SvgjsClipPath1035"><path id="SvgjsPath1034" d="M50.4456 3459.07L-3.058340000000001 3479.01L-47.0041 3442.44L-37.4457 3385.94L16.0584 3366L60.0041 3402.56Z " fill="#ffffff"></path></clipPath></defs><path id="SvgjsPath1027" d="M108 3246.71L22.774600000000007 3278.33L-47.22529999999999 3220.34L-31.99989999999999 3130.7200000000003L53.22530000000001 3099.09L123.22500000000002 3157.09Z " fill-opacity="0" fill="#ffffff" stroke-dasharray="0" stroke-linejoin="miter" stroke-linecap="butt" stroke-opacity="1" stroke="#eead59" stroke-miterlimit="50" stroke-width="11.06" clip-path="url(&quot;#SvgjsClipPath1029&quot;)" transform="matrix(1,0,0,1,66,-3099)"></path><path id="SvgjsPath1030" d="M157.213 3399.64L35.2033 3444.98L-65.0093 3361.83L-43.212599999999995 3233.34L78.7967 3188L179.00900000000001 3271.15Z " fill-opacity="0" fill="#ffffff" stroke-dasharray="0" stroke-linejoin="miter" stroke-linecap="butt" stroke-opacity="1" stroke="#eead59" stroke-miterlimit="50" stroke-width="11.06" clip-path="url(&quot;#SvgjsClipPath1032&quot;)" transform="matrix(1,0,0,1,66,-3099)"></path><path id="SvgjsPath1033" d="M50.4456 3459.07L-3.058340000000001 3479.01L-47.0041 3442.44L-37.4457 3385.94L16.0584 3366L60.0041 3402.56Z " fill-opacity="0" fill="#ffffff" stroke-dasharray="0" stroke-linejoin="miter" stroke-linecap="butt" stroke-opacity="1" stroke="#eead59" stroke-miterlimit="50" stroke-width="11.06" clip-path="url(&quot;#SvgjsClipPath1035&quot;)" transform="matrix(1,0,0,1,66,-3099)"></path></svg>