<svg id="SvgjsSvg1036" xmlns="http://www.w3.org/2000/svg" version="1.1" xmlns:xlink="http://www.w3.org/1999/xlink" xmlns:svgjs="http://svgjs.com/svgjs" width="300" height="445" viewBox="0 0 300 445"><title>Polygon 3 copy 3</title><desc>Created with Avocode.</desc><defs id="SvgjsDefs1037"><clipPath id="SvgjsClipPath1040"><path id="SvgjsPath1039" d="M1622.39 3818.61L1473.38 3874.02L1350.99 3772.41L1377.61 3615.3999999999996L1526.62 3559.9999999999995L1649.01 3661.5999999999995Z " fill="#ffffff"></path></clipPath><clipPath id="SvgjsClipPath1043"><path id="SvgjsPath1042" d="M1532.28 3972L1444.28 4004.99L1371.99 3944.49L1387.72 3850.99L1475.72 3818L1548.01 3878.5Z " fill="#ffffff"></path></clipPath></defs><path id="SvgjsPath1038" d="M1622.39 3818.61L1473.38 3874.02L1350.99 3772.41L1377.61 3615.3999999999996L1526.62 3559.9999999999995L1649.01 3661.5999999999995Z " fill-opacity="0" fill="#ffffff" stroke-dasharray="0" stroke-linejoin="miter" stroke-linecap="butt" stroke-opacity="1" stroke="#eead59" stroke-miterlimit="50" stroke-width="11.06" clip-path="url(&quot;#SvgjsClipPath1040&quot;)" transform="matrix(1,0,0,1,-1350,-3560)"></path><path id="SvgjsPath1041" d="M1532.28 3972L1444.28 4004.99L1371.99 3944.49L1387.72 3850.99L1475.72 3818L1548.01 3878.5Z " fill-opacity="0" fill="#ffffff" stroke-dasharray="0" stroke-linejoin="miter" stroke-linecap="butt" stroke-opacity="1" stroke="#eead59" stroke-miterlimit="50" stroke-width="11.06" clip-path="url(&quot;#SvgjsClipPath1043&quot;)" transform="matrix(1,0,0,1,-1350,-3560)"></path></svg>