<svg id="SvgjsSvg1033" xmlns="http://www.w3.org/2000/svg" version="1.1" xmlns:xlink="http://www.w3.org/1999/xlink" xmlns:svgjs="http://svgjs.com/svgjs" width="288" height="475" viewBox="0 0 288 475"><title>Polygon 4</title><desc>Created with Avocode.</desc><defs id="SvgjsDefs1034"><clipPath id="SvgjsClipPath1037"><path id="SvgjsPath1036" d="M172 9726.14L28.745100000000008 9754.289999999999L-67.25489999999999 9644.289999999999L-19.999999999999993 9506.16L123.255 9478.02L219.255 9588.01Z " fill="#ffffff"></path></clipPath><clipPath id="SvgjsClipPath1040"><path id="SvgjsPath1039" d="M112.872 9858.12L6.368009999999998 9879L-65.0036 9797.38L-29.871700000000004 9694.869999999999L76.6319 9673.99L148.00400000000002 9755.61Z " fill="#ffffff"></path></clipPath><clipPath id="SvgjsClipPath1043"><path id="SvgjsPath1042" d="M154.427 9938.43L79.9241 9953L29.9974 9896.07L54.5733 9824.56L129.07600000000002 9809.99L179.002 9866.93Z " fill="#ffffff"></path></clipPath></defs><path id="SvgjsPath1035" d="M172 9726.14L28.745100000000008 9754.289999999999L-67.25489999999999 9644.289999999999L-19.999999999999993 9506.16L123.255 9478.02L219.255 9588.01Z " fill-opacity="0" fill="#ffffff" stroke-dasharray="0" stroke-linejoin="miter" stroke-linecap="butt" stroke-opacity="1" stroke="#eead59" stroke-miterlimit="50" stroke-width="11.06" clip-path="url(&quot;#SvgjsClipPath1037&quot;)" transform="matrix(1,0,0,1,68,-9478)"></path><path id="SvgjsPath1038" d="M112.872 9858.12L6.368009999999998 9879L-65.0036 9797.38L-29.871700000000004 9694.869999999999L76.6319 9673.99L148.00400000000002 9755.61Z " fill-opacity="0" fill="#ffffff" stroke-dasharray="0" stroke-linejoin="miter" stroke-linecap="butt" stroke-opacity="1" stroke="#eead59" stroke-miterlimit="50" stroke-width="11.06" clip-path="url(&quot;#SvgjsClipPath1040&quot;)" transform="matrix(1,0,0,1,68,-9478)"></path><path id="SvgjsPath1041" d="M154.427 9938.43L79.9241 9953L29.9974 9896.07L54.5733 9824.56L129.07600000000002 9809.99L179.002 9866.93Z " fill-opacity="0" fill="#ffffff" stroke-dasharray="0" stroke-linejoin="miter" stroke-linecap="butt" stroke-opacity="1" stroke="#eead59" stroke-miterlimit="50" stroke-width="11.06" clip-path="url(&quot;#SvgjsClipPath1043&quot;)" transform="matrix(1,0,0,1,68,-9478)"></path></svg>