<svg id="SvgjsSvg1011" xmlns="http://www.w3.org/2000/svg" version="1.1" xmlns:xlink="http://www.w3.org/1999/xlink" xmlns:svgjs="http://svgjs.com/svgjs" width="621" height="527" viewBox="0 0 621 527"><title>Polygon 2</title><desc>Created with Avocode.</desc><defs id="SvgjsDefs1012"><clipPath id="SvgjsClipPath1015"><path id="SvgjsPath1014" d="M1718 1190.92L1512.77 1266.41L1344.77 1126.43L1382 910.9390000000001L1587.23 835.441L1755.23 975.4290000000001Z " fill="#ffffff"></path></clipPath><clipPath id="SvgjsClipPath1018"><path id="SvgjsPath1017" d="M1612.6 1318.56L1494.59 1362L1397.99 1281.45L1419.4 1157.45L1537.41 1114L1634.01 1194.56Z " fill="#ffffff"></path></clipPath><clipPath id="SvgjsClipPath1021"><path id="SvgjsPath1020" d="M1463.7 1076.6L1329.69 1126L1219.99 1034.4L1244.3 893.403L1378.31 844.0020000000001L1488.01 935.6020000000001Z " fill="#ffffff"></path></clipPath><clipPath id="SvgjsClipPath1024"><path id="SvgjsPath1023" d="M1257.76 1069.13L1190.25 1094L1135 1047.88L1147.24 976.8760000000001L1214.75 952.0010000000001L1270 998.1250000000001Z " fill="#ffffff"></path></clipPath></defs><path id="SvgjsPath1013" d="M1718 1190.92L1512.77 1266.41L1344.77 1126.43L1382 910.9390000000001L1587.23 835.441L1755.23 975.4290000000001Z " fill-opacity="0" fill="#ffffff" stroke-dasharray="0" stroke-linejoin="miter" stroke-linecap="butt" stroke-opacity="1" stroke="#eead59" stroke-miterlimit="50" stroke-width="11.06" clip-path="url(&quot;#SvgjsClipPath1015&quot;)" transform="matrix(1,0,0,1,-1135,-835)"></path><path id="SvgjsPath1016" d="M1612.6 1318.56L1494.59 1362L1397.99 1281.45L1419.4 1157.45L1537.41 1114L1634.01 1194.56Z " fill-opacity="0" fill="#ffffff" stroke-dasharray="0" stroke-linejoin="miter" stroke-linecap="butt" stroke-opacity="1" stroke="#eead59" stroke-miterlimit="50" stroke-width="11.06" clip-path="url(&quot;#SvgjsClipPath1018&quot;)" transform="matrix(1,0,0,1,-1135,-835)"></path><path id="SvgjsPath1019" d="M1463.7 1076.6L1329.69 1126L1219.99 1034.4L1244.3 893.403L1378.31 844.0020000000001L1488.01 935.6020000000001Z " fill-opacity="0" fill="#ffffff" stroke-dasharray="0" stroke-linejoin="miter" stroke-linecap="butt" stroke-opacity="1" stroke="#eead59" stroke-miterlimit="50" stroke-width="11.06" clip-path="url(&quot;#SvgjsClipPath1021&quot;)" transform="matrix(1,0,0,1,-1135,-835)"></path><path id="SvgjsPath1022" d="M1257.76 1069.13L1190.25 1094L1135 1047.88L1147.24 976.8760000000001L1214.75 952.0010000000001L1270 998.1250000000001Z " fill-opacity="0" fill="#ffffff" stroke-dasharray="0" stroke-linejoin="miter" stroke-linecap="butt" stroke-opacity="1" stroke="#eead59" stroke-miterlimit="50" stroke-width="11.06" clip-path="url(&quot;#SvgjsClipPath1024&quot;)" transform="matrix(1,0,0,1,-1135,-835)"></path></svg>